<svg xmlns="http://www.w3.org/2000/svg" width="123" height="41" viewBox="0 0 123 41" fill="none"><g clip-path="url(#clip0_641_2197)"><path d="M61.4055 13.4198C60.6626 13.4061 59.9269 13.5675 59.2577 13.8911C58.6312 14.2096 58.0919 14.6767 57.6867 15.2516C57.2372 15.9009 56.911 16.6275 56.7242 17.395C56.4939 18.3218 56.3833 19.2744 56.3952 20.2294C56.3674 21.4539 56.5457 22.6744 56.9224 23.8397C57.2097 24.7538 57.7797 25.5528 58.55 26.1214C59.3945 26.6771 60.3924 26.9523 61.402 26.9079C62.221 26.9061 63.0373 26.8146 63.8364 26.6351C64.7342 26.4271 65.6192 26.1668 66.4867 25.8556V29.3986C65.6483 29.7508 64.7755 30.0145 63.8824 30.1851C62.9328 30.3522 61.9698 30.4317 61.0057 30.4225C58.9487 30.4225 57.2597 29.9974 55.9387 29.147C54.6103 28.29 53.5823 27.039 52.9983 25.5687C52.3319 23.857 52.0085 22.0307 52.0464 20.194C52.03 18.7862 52.2366 17.3846 52.6586 16.0416C53.0361 14.8448 53.6484 13.7354 54.4596 12.7786C55.2609 11.8533 56.2648 11.1258 57.393 10.6528C58.6642 10.1314 60.0285 9.87583 61.402 9.90168C62.4068 9.90279 63.4076 10.0289 64.3813 10.2772C65.3651 10.525 66.3216 10.8703 67.2368 11.3082L65.8745 14.7485C65.141 14.4001 64.3898 14.0903 63.6241 13.8202C62.9122 13.5634 62.1622 13.4281 61.4055 13.4198V13.4198Z" fill="#222E5E"></path><path d="M73.1709 8.9026V13.2286C73.1709 13.9867 73.145 14.706 73.0931 15.3862C73.0436 16.07 73.0046 16.5518 72.9799 16.8353H73.1957C73.4981 16.3359 73.8947 15.9003 74.3634 15.5527C74.8153 15.2298 75.3209 14.9899 75.8566 14.8441C76.433 14.6866 77.0283 14.6091 77.6258 14.6138C78.6159 14.5915 79.5985 14.79 80.5025 15.1949C81.3185 15.577 81.9888 16.2134 82.4133 17.0089C82.9047 17.9975 83.1395 19.0941 83.0962 20.1975V30.1533H78.9244V21.2321C78.9244 20.1409 78.7262 19.3154 78.3264 18.752C78.1116 18.4679 77.8288 18.2424 77.5042 18.0963C77.1796 17.9502 76.8235 17.8882 76.4687 17.9159C75.7624 17.8771 75.0642 18.0822 74.4908 18.4969C73.9748 18.9408 73.6161 19.5398 73.4682 20.2046C73.253 21.1059 73.1531 22.031 73.1709 22.9575V30.1497H69.0098V8.89197L73.1709 8.9026Z" fill="#222E5E"></path><path d="M92.2182 14.5679C94.2634 14.5679 95.8309 15.0143 96.9208 15.9071C98.0106 16.7999 98.5567 18.1569 98.559 19.978V30.1498H95.6469L94.8508 28.0595H94.7411C94.351 28.5584 93.9019 29.0081 93.4036 29.3987C92.9355 29.7531 92.4031 30.013 91.8361 30.164C91.1317 30.3404 90.4071 30.4226 89.6812 30.4084C88.8456 30.4224 88.0179 30.2455 87.2609 29.8912C86.5493 29.5471 85.9612 28.9916 85.5766 28.3004C85.1373 27.4629 84.925 26.5247 84.9609 25.5794C84.9609 23.9567 85.5294 22.7616 86.6664 21.9939C87.8035 21.2263 89.5078 20.8011 91.7795 20.7184L94.4262 20.6334V19.9673C94.4262 19.1631 94.2174 18.5785 93.7999 18.1959C93.3072 17.7977 92.6839 17.5981 92.0519 17.6361C91.3187 17.6362 90.5893 17.7424 89.8864 17.9514C89.1617 18.1677 88.4524 18.4328 87.7634 18.745L86.3869 15.9284C87.2492 15.4948 88.1604 15.1665 89.1009 14.9505C90.121 14.6986 91.1676 14.5702 92.2182 14.5679V14.5679ZM94.4262 23.071L92.8162 23.1241C91.4716 23.1595 90.5375 23.3957 90.0138 23.8327C89.7571 24.0487 89.5532 24.3206 89.4176 24.6277C89.2821 24.9347 89.2185 25.2687 89.2318 25.6042C89.2059 25.8595 89.2434 26.1173 89.341 26.3546C89.4385 26.592 89.593 26.8015 89.7909 26.9647C90.2214 27.2514 90.7322 27.3929 91.2487 27.3686C92.0732 27.3919 92.8772 27.1092 93.5062 26.575C93.8183 26.2923 94.063 25.9431 94.2222 25.5531C94.3814 25.1631 94.4512 24.7422 94.4262 24.3216V23.071Z" fill="#222E5E"></path><path d="M103.53 8.90266C104.093 8.88665 104.647 9.03567 105.126 9.33136C105.572 9.61952 105.795 10.1545 105.795 10.9363C105.795 11.7181 105.572 12.2531 105.126 12.5413C104.645 12.829 104.094 12.9809 103.534 12.9809C102.973 12.9809 102.423 12.829 101.941 12.5413C101.5 12.2437 101.28 11.7087 101.28 10.9363C101.28 10.164 101.5 9.62897 101.941 9.33136C102.418 9.03585 102.97 8.88679 103.53 8.90266V8.90266ZM105.604 14.8832V30.1498H101.446V14.8832H105.604Z" fill="#222E5E"></path><path d="M117.231 14.5962C118.855 14.5962 120.168 15.0391 121.159 15.9283C122.15 16.8176 122.645 18.2383 122.645 20.1799V30.1356H118.487V21.2321C118.487 20.1409 118.289 19.3154 117.896 18.7521C117.681 18.4669 117.397 18.2408 117.071 18.0946C116.745 17.9485 116.388 17.887 116.032 17.9159C114.761 17.9159 113.891 18.3482 113.427 19.2162C112.964 20.0842 112.72 21.342 112.72 22.9576V30.1498H108.573V14.8832H111.757L112.316 16.8353H112.55C112.859 16.3241 113.276 15.8864 113.771 15.5528C114.267 15.2259 114.815 14.9862 115.391 14.8442C115.992 14.6852 116.61 14.6019 117.231 14.5962V14.5962Z" fill="#222E5E"></path><path d="M22.7555 0.162199L2.27873 4.78576C1.63192 4.93271 1.05415 5.29533 0.640127 5.81417C0.226107 6.333 0.000399911 6.97727 0 7.64138V32.5909C0.00140382 33.2558 0.228357 33.9005 0.643663 34.4194C1.05897 34.9382 1.63799 35.3004 2.28581 35.4465L22.706 40.0169C23.1254 40.1108 23.5604 40.1108 23.9798 40.0169L44.4813 35.443C45.1301 35.2986 45.7102 34.9369 46.1258 34.4177C46.5414 33.8984 46.7677 33.2528 46.7671 32.5873V7.64138C46.7674 6.9771 46.5419 6.33251 46.1278 5.81354C45.7137 5.29458 45.1355 4.93213 44.4884 4.78576L24.0293 0.162199C23.6099 0.0686551 23.175 0.0686551 22.7555 0.162199Z" fill="#EF6825"></path><path d="M22.4655 30.4332H5.52002V9.91235H22.4655V12.5412H11.5389V18.7698H21.4641V21.3845H11.5565V27.8043H22.4831L22.4655 30.4332Z" fill="white"></path><path d="M42.6875 9.91235L31.2902 27.8043H41.8276V30.4332H22.7202L34.1776 12.5412H24.3337V9.91235H42.6875Z" fill="white"></path></g><defs><clipPath id="clip0_641_2197"><rect width="122.648" height="40" fill="white" transform="translate(0 0.0877686)"></rect></clipPath></defs></svg>