<svg width="16" height="16" viewBox="0 0 16 16" fill="none" xmlns="http://www.w3.org/2000/svg">
<g clip-path="url(#clip0_140_996)">
<path d="M16 8.04884C16 12.0415 13.0707 15.3515 9.24666 15.9522V10.3768H11.106L11.46 8.07017H9.24666V6.5735C9.24666 5.94217 9.55599 5.3275 10.5467 5.3275H11.5527V3.3635C11.5527 3.3635 10.6393 3.2075 9.76666 3.2075C7.944 3.2075 6.75333 4.31217 6.75333 6.3115V8.0695H4.72733V10.3762H6.75333V15.9515C2.93 15.3502 0 12.0408 0 8.04884C0 3.63083 3.582 0.0488281 8 0.0488281C12.418 0.0488281 16 3.63016 16 8.04884Z" fill="#868A9E"/>
</g>
<defs>
<clipPath id="clip0_140_996">
<rect width="16" height="16" fill="white"/>
</clipPath>
</defs>
</svg>
