<svg width="16" height="16" viewBox="0 0 16 16" fill="none" xmlns="http://www.w3.org/2000/svg">
<g clip-path="url(#clip0_140_1044)">
<path d="M8.66666 9.3335V10.6668H7.33333V9.3335H0V16.0002H16V9.3335H8.66666Z" fill="#868A9E"/>
<path d="M16 8V4.66667C16 4.13623 15.7893 3.62753 15.4142 3.25245C15.0391 2.87738 14.5304 2.66667 14 2.66667H12V1.33333C12 0.979711 11.8595 0.640573 11.6095 0.390524C11.3594 0.140476 11.0203 0 10.6667 0L5.33333 0C4.97971 0 4.64057 0.140476 4.39052 0.390524C4.14048 0.640573 4 0.979711 4 1.33333V2.66667H2C1.46957 2.66667 0.960859 2.87738 0.585786 3.25245C0.210714 3.62753 0 4.13623 0 4.66667L0 8H16ZM5.33333 1.33333H10.6667V2.66667H5.33333V1.33333Z" fill="#868A9E"/>
</g>
<defs>
<clipPath id="clip0_140_1044">
<rect width="16" height="16" fill="white"/>
</clipPath>
</defs>
</svg>
