<svg width="190" height="40" viewBox="0 0 190 40" fill="none" xmlns="http://www.w3.org/2000/svg">
<circle cx="20" cy="20" r="20" fill="#292C53"/>
<circle cx="24" cy="12" r="10" fill="#391ED2"/>
<circle cx="28" cy="8" r="4" fill="white"/>
<path d="M57.517 11.5455H62.0682L66.875 23.2727H67.0795L71.8864 11.5455H76.4375V29H72.858V17.6392H72.7131L68.196 28.9148H65.7585L61.2415 17.5966H61.0966V29H57.517V11.5455ZM83.1428 29.2472C82.3075 29.2472 81.5632 29.1023 80.9098 28.8125C80.2564 28.517 79.7393 28.0824 79.3587 27.5085C78.9837 26.929 78.7962 26.2074 78.7962 25.3438C78.7962 24.6165 78.9297 24.0057 79.1967 23.5114C79.4638 23.017 79.8274 22.6193 80.2876 22.3182C80.7479 22.017 81.2706 21.7898 81.8558 21.6364C82.4467 21.483 83.0661 21.375 83.7138 21.3125C84.4751 21.233 85.0888 21.1591 85.5547 21.0909C86.0206 21.017 86.3587 20.9091 86.5689 20.767C86.7791 20.625 86.8842 20.4148 86.8842 20.1364V20.0852C86.8842 19.5455 86.7138 19.1278 86.3729 18.8324C86.0376 18.5369 85.5604 18.3892 84.9411 18.3892C84.2876 18.3892 83.7678 18.5341 83.3814 18.8239C82.995 19.108 82.7393 19.4659 82.6143 19.8977L79.2564 19.625C79.4268 18.8295 79.7621 18.142 80.2621 17.5625C80.7621 16.9773 81.407 16.5284 82.1967 16.2159C82.9922 15.8977 83.9126 15.7386 84.9581 15.7386C85.6854 15.7386 86.3814 15.8239 87.0462 15.9943C87.7166 16.1648 88.3104 16.429 88.8274 16.7869C89.3501 17.1449 89.7621 17.6051 90.0632 18.1676C90.3643 18.7244 90.5149 19.392 90.5149 20.1705V29H87.0717V27.1847H86.9695C86.7592 27.5938 86.478 27.9545 86.1257 28.267C85.7734 28.5739 85.3501 28.8153 84.8558 28.9915C84.3615 29.1619 83.7905 29.2472 83.1428 29.2472ZM84.1825 26.7415C84.7166 26.7415 85.1882 26.6364 85.5973 26.4261C86.0064 26.2102 86.3274 25.9205 86.5604 25.5568C86.7933 25.1932 86.9098 24.7812 86.9098 24.321V22.9318C86.7962 23.0057 86.6399 23.0739 86.4411 23.1364C86.2479 23.1932 86.0291 23.2472 85.7848 23.2983C85.5405 23.3437 85.2962 23.3864 85.0518 23.4261C84.8075 23.4602 84.5859 23.4915 84.3871 23.5199C83.9609 23.5824 83.5888 23.6818 83.2706 23.8182C82.9524 23.9545 82.7053 24.1392 82.5291 24.3722C82.353 24.5994 82.2649 24.8835 82.2649 25.2244C82.2649 25.7188 82.4439 26.0966 82.8018 26.358C83.1655 26.6136 83.6257 26.7415 84.1825 26.7415ZM99.2294 34.1818C98.0533 34.1818 97.0447 34.0199 96.2038 33.696C95.3686 33.3778 94.7038 32.9432 94.2095 32.392C93.7152 31.8409 93.3942 31.2216 93.2464 30.5341L96.6044 30.0824C96.7067 30.3438 96.8686 30.5881 97.0902 30.8153C97.3118 31.0426 97.6044 31.2244 97.968 31.3608C98.3374 31.5028 98.7862 31.5739 99.3146 31.5739C100.104 31.5739 100.755 31.3807 101.266 30.9943C101.783 30.6136 102.042 29.9744 102.042 29.0767V26.6818H101.888C101.729 27.0455 101.491 27.3892 101.173 27.7131C100.854 28.0369 100.445 28.3011 99.9453 28.5057C99.4453 28.7102 98.8487 28.8125 98.1555 28.8125C97.1726 28.8125 96.2777 28.5852 95.4709 28.1307C94.6697 27.6705 94.0305 26.9687 93.5533 26.0256C93.0817 25.0767 92.8459 23.8778 92.8459 22.429C92.8459 20.946 93.0874 19.7074 93.5703 18.7131C94.0533 17.7187 94.6953 16.9744 95.4964 16.4801C96.3033 15.9858 97.1868 15.7386 98.147 15.7386C98.88 15.7386 99.4936 15.8636 99.9879 16.1136C100.482 16.358 100.88 16.6648 101.181 17.0341C101.488 17.3977 101.724 17.7557 101.888 18.108H102.025V15.9091H105.63V29.1278C105.63 30.2415 105.357 31.1733 104.812 31.9233C104.266 32.6733 103.511 33.2358 102.545 33.6108C101.585 33.9915 100.479 34.1818 99.2294 34.1818ZM99.3061 26.0852C99.8913 26.0852 100.386 25.9403 100.789 25.6506C101.198 25.3551 101.511 24.9347 101.727 24.3892C101.948 23.8381 102.059 23.179 102.059 22.4119C102.059 21.6449 101.951 20.9801 101.735 20.4176C101.519 19.8494 101.207 19.4091 100.798 19.0966C100.388 18.7841 99.8913 18.6278 99.3061 18.6278C98.7095 18.6278 98.2067 18.7898 97.7976 19.1136C97.3885 19.4318 97.0788 19.875 96.8686 20.4432C96.6584 21.0114 96.5533 21.6676 96.5533 22.4119C96.5533 23.1676 96.6584 23.821 96.8686 24.3722C97.0845 24.9176 97.3942 25.3409 97.7976 25.642C98.2067 25.9375 98.7095 26.0852 99.3061 26.0852ZM108.519 29V15.9091H112.15V29H108.519ZM110.343 14.2216C109.803 14.2216 109.34 14.0426 108.954 13.6847C108.573 13.321 108.383 12.8864 108.383 12.3807C108.383 11.8807 108.573 11.4517 108.954 11.0938C109.34 10.7301 109.803 10.5483 110.343 10.5483C110.883 10.5483 111.343 10.7301 111.724 11.0938C112.11 11.4517 112.303 11.8807 112.303 12.3807C112.303 12.8864 112.11 13.321 111.724 13.6847C111.343 14.0426 110.883 14.2216 110.343 14.2216ZM120.973 29.2557C119.632 29.2557 118.479 28.9716 117.513 28.4034C116.553 27.8295 115.814 27.0341 115.297 26.017C114.786 25 114.53 23.8295 114.53 22.5057C114.53 21.1648 114.788 19.9886 115.305 18.9773C115.828 17.9602 116.57 17.1676 117.53 16.5994C118.49 16.0256 119.632 15.7386 120.956 15.7386C122.098 15.7386 123.098 15.946 123.956 16.3608C124.814 16.7756 125.493 17.358 125.993 18.108C126.493 18.858 126.768 19.7386 126.82 20.75H123.393C123.297 20.0966 123.041 19.571 122.626 19.1733C122.217 18.7699 121.68 18.5682 121.016 18.5682C120.453 18.5682 119.962 18.7216 119.541 19.0284C119.126 19.3295 118.803 19.7699 118.57 20.3494C118.337 20.929 118.22 21.6307 118.22 22.4545C118.22 23.2898 118.334 24 118.561 24.5852C118.794 25.1705 119.121 25.6165 119.541 25.9233C119.962 26.2301 120.453 26.3835 121.016 26.3835C121.43 26.3835 121.803 26.2983 122.132 26.1278C122.467 25.9574 122.743 25.7102 122.959 25.3864C123.18 25.0568 123.325 24.6619 123.393 24.2017H126.82C126.763 25.2017 126.49 26.0824 126.001 26.8438C125.518 27.5994 124.851 28.1903 123.999 28.6165C123.146 29.0426 122.138 29.2557 120.973 29.2557ZM134.767 29V11.5455H138.457V25.9574H145.94V29H134.767ZM154.282 29.2557C152.935 29.2557 151.776 28.983 150.805 28.4375C149.839 27.8864 149.094 27.108 148.572 26.1023C148.049 25.0909 147.788 23.8949 147.788 22.5142C147.788 21.1676 148.049 19.9858 148.572 18.9688C149.094 17.9517 149.83 17.1591 150.779 16.5909C151.734 16.0227 152.853 15.7386 154.137 15.7386C155.001 15.7386 155.805 15.8778 156.549 16.1562C157.299 16.429 157.952 16.8409 158.509 17.392C159.072 17.9432 159.509 18.6364 159.822 19.4716C160.134 20.3011 160.29 21.2727 160.29 22.3864V23.3835H149.237V21.1335H156.873C156.873 20.6108 156.759 20.1477 156.532 19.7443C156.305 19.3409 155.989 19.0256 155.586 18.7983C155.188 18.5653 154.725 18.4489 154.197 18.4489C153.646 18.4489 153.157 18.5767 152.731 18.8324C152.31 19.0824 151.981 19.4205 151.742 19.8466C151.504 20.267 151.381 20.7358 151.376 21.2528V23.392C151.376 24.0398 151.495 24.5994 151.734 25.071C151.978 25.5426 152.322 25.9062 152.765 26.1619C153.208 26.4176 153.734 26.5455 154.342 26.5455C154.745 26.5455 155.114 26.4886 155.45 26.375C155.785 26.2614 156.072 26.0909 156.31 25.8636C156.549 25.6364 156.731 25.358 156.856 25.0284L160.214 25.25C160.043 26.0568 159.694 26.7614 159.165 27.3636C158.643 27.9602 157.967 28.4261 157.137 28.7614C156.313 29.0909 155.362 29.2557 154.282 29.2557ZM166.29 21.4318V29H162.66V15.9091H166.12V18.2188H166.273C166.563 17.4574 167.049 16.8551 167.731 16.4119C168.413 15.9631 169.239 15.7386 170.211 15.7386C171.12 15.7386 171.913 15.9375 172.589 16.3352C173.265 16.733 173.79 17.3011 174.165 18.0398C174.54 18.7727 174.728 19.6477 174.728 20.6648V29H171.097V21.3125C171.103 20.5114 170.898 19.8864 170.484 19.4375C170.069 18.983 169.498 18.7557 168.771 18.7557C168.282 18.7557 167.85 18.8608 167.475 19.071C167.106 19.2812 166.816 19.5881 166.606 19.9915C166.401 20.3892 166.296 20.8693 166.29 21.4318ZM188.482 19.642L185.158 19.8466C185.101 19.5625 184.979 19.3068 184.791 19.0795C184.604 18.8466 184.357 18.6619 184.05 18.5256C183.749 18.3835 183.388 18.3125 182.967 18.3125C182.405 18.3125 181.93 18.4318 181.544 18.6705C181.158 18.9034 180.964 19.2159 180.964 19.608C180.964 19.9205 181.089 20.1847 181.339 20.4006C181.589 20.6165 182.018 20.7898 182.626 20.9205L184.996 21.3977C186.268 21.6591 187.217 22.0795 187.842 22.6591C188.467 23.2386 188.78 24 188.78 24.9432C188.78 25.8011 188.527 26.554 188.021 27.2017C187.521 27.8494 186.834 28.3551 185.959 28.7188C185.089 29.0767 184.087 29.2557 182.95 29.2557C181.217 29.2557 179.837 28.8949 178.808 28.1733C177.786 27.446 177.186 26.4574 177.01 25.2074L180.581 25.0199C180.689 25.5483 180.95 25.9517 181.365 26.2301C181.78 26.5028 182.311 26.6392 182.959 26.6392C183.595 26.6392 184.107 26.517 184.493 26.2727C184.885 26.0227 185.084 25.7017 185.089 25.3097C185.084 24.9801 184.945 24.7102 184.672 24.5C184.399 24.2841 183.979 24.1193 183.411 24.0057L181.143 23.554C179.865 23.2983 178.913 22.8551 178.288 22.2244C177.669 21.5937 177.359 20.7898 177.359 19.8125C177.359 18.9716 177.587 18.2472 178.041 17.6392C178.501 17.0312 179.146 16.5625 179.976 16.233C180.811 15.9034 181.788 15.7386 182.908 15.7386C184.561 15.7386 185.862 16.0881 186.811 16.7869C187.766 17.4858 188.322 18.4375 188.482 19.642Z" fill="#292C53"/>
</svg>
