<svg width="16" height="16" viewBox="0 0 16 16" fill="none" xmlns="http://www.w3.org/2000/svg">
<g clip-path="url(#clip0_140_983)">
<path d="M10.6953 9.3335H5.30466C4.42854 9.33455 3.5886 9.68306 2.96908 10.3026C2.34957 10.9221 2.00106 11.762 2 12.6382V16.0002H14V12.6382C13.9989 11.762 13.6504 10.9221 13.0309 10.3026C12.4114 9.68306 11.5715 9.33455 10.6953 9.3335V9.3335Z" fill="#868A9E"/>
<path d="M8 8C10.2091 8 12 6.20914 12 4C12 1.79086 10.2091 0 8 0C5.79086 0 4 1.79086 4 4C4 6.20914 5.79086 8 8 8Z" fill="#868A9E"/>
</g>
<defs>
<clipPath id="clip0_140_983">
<rect width="16" height="16" fill="white"/>
</clipPath>
</defs>
</svg>
